PathFileType	4	(X/Y/Z)	C:\Users\Graham\Documents\MATLAB\MOtoNMS_v2_2\MyData\ElaboratedData\S1\17-05-18\dynamicElaborations\rightStSt\\ET2\ET2.trc
DataRate	CameraRate	NumFrames	NumMarkers	Units	OrigDataRate	DataStartFrame
100	100	11	29	mm	100	106
Frame#	Time	V_Sacral			R_ASIS			L_ASIS			R_Knee_Lat			R_Thigh_Upper			R_Thigh_Front			R_Thigh_Rear			L_Knee_Lat			L_Thigh_Upper			L_Thigh_Front			L_Thigh_Rear			R_Ankle_Lat			R_Shank_Upper			R_Shank_Front			R_Shank_Rear			L_Ankle_Lat			L_Shank_Upper			L_Shank_Front			L_Shank_Rear			R_Heel			R_MTP1			R_MTP5			L_Heel			L_MTP1			L_MTP5			Clavicle			C7			R_Acromium			L_Acromium		
		X1	Y1	Z1	X2	Y2	Z2	X3	Y3	Z3	X4	Y4	Z4	X5	Y5	Z5	X6	Y6	Z6	X7	Y7	Z7	X8	Y8	Z8	X9	Y9	Z9	X10	Y10	Z10	X11	Y11	Z11	X12	Y12	Z12	X13	Y13	Z13	X14	Y14	Z14	X15	Y15	Z15	X16	Y16	Z16	X17	Y17	Z17	X18	Y18	Z18	X19	Y19	Z19	X20	Y20	Z20	X21	Y21	Z21	X22	Y22	Z22	X23	Y23	Z23	X24	Y24	Z24	X25	Y25	Z25	X26	Y26	Z26	X27	Y27	Z27	X28	Y28	Z28	X29	Y29	Z29	

218	2.170000	-61.089003	1030.309906	-14.279046	249.230953	1035.090246	121.132972	248.542295	1027.733168	-134.499293	311.465800	560.350883	165.057052	273.112073	908.843582	165.883386	340.108349	802.588504	137.991903	285.313108	780.528037	192.266280	157.789270	525.982410	-137.991412	269.545376	841.330509	-143.281333	269.806696	727.778991	-84.985612	236.433497	719.579976	-163.983696	224.426072	141.225109	154.896614	331.297224	344.161467	140.812182	283.333538	242.909532	80.836512	275.527710	237.093999	162.010569	51.186982	98.400120	-102.858763	164.245731	310.231081	-93.882016	112.020362	206.997016	-40.192396	108.179898	202.473501	-120.406965	148.542364	92.954952	94.298409	374.263832	77.729435	75.522678	363.675880	73.469039	154.512335	-24.344866	60.333841	-55.969171	210.648795	58.338841	-27.035202	193.444009	50.333150	-113.330082	275.927323	1461.853847	-11.301022	140.008565	1574.855888	-13.486359	221.168782	1492.814497	185.376178	224.333957	1501.170735	-221.020114	
219	2.180000	-62.380387	1029.746344	-13.996609	247.963628	1034.142185	121.545468	247.266313	1026.814710	-134.080529	310.127270	559.083030	164.563516	271.416187	907.552718	166.686800	338.006213	801.114820	138.561646	283.362927	779.130621	192.847612	151.257229	525.566769	-137.823937	266.885553	839.915934	-142.939286	266.035412	726.332155	-84.699116	232.239508	718.557347	-163.609291	244.600475	135.782344	156.538354	340.384990	344.036006	141.321439	297.691526	240.074880	82.014496	290.571401	234.153113	163.206367	41.873055	98.486395	-102.685210	156.247078	309.769559	-93.797677	103.402614	206.823760	-40.099378	99.566837	202.325084	-120.302850	171.105140	83.930144	96.227368	397.027489	78.701108	77.247383	387.051458	74.528418	156.449445	-33.742545	60.419580	-55.846564	201.283751	58.182766	-27.067223	184.024718	50.197742	-113.309016	275.258889	1460.822676	-10.881309	139.631254	1574.040421	-13.010919	220.439447	1491.757224	185.924744	223.788254	1500.263365	-220.547034	
220	2.190000	-63.580685	1029.090015	-13.697580	246.764889	1033.081474	122.004388	246.090588	1025.841701	-133.616082	308.498855	557.576270	164.123868	269.678787	905.863594	167.428062	335.656491	799.109770	139.098849	281.215086	777.337499	193.445895	144.741316	525.157885	-137.659228	264.306215	838.446294	-142.553364	262.326762	724.808879	-84.399392	228.095418	717.504304	-163.204396	264.752044	131.261336	158.222153	349.091347	344.293117	141.953766	311.939434	237.896219	83.263826	305.239475	231.849077	164.496453	32.557989	98.594530	-102.518939	148.236891	309.327823	-93.726005	94.781458	206.667059	-40.007589	90.935967	202.200386	-120.186652	193.752061	76.005567	98.187737	419.480035	80.678122	78.841914	410.134748	76.434642	158.220460	-43.142483	60.524289	-55.730107	191.907342	58.016691	-27.086685	174.604053	50.061902	-113.301263	274.613874	1459.722119	-10.370886	139.283669	1573.151135	-12.429603	219.796150	1490.624910	186.554210	223.236313	1499.291689	-219.979656	
221	2.200000	-64.675440	1028.339855	-13.371957	245.651038	1031.915779	122.515913	245.024435	1024.808520	-133.098764	306.650926	555.891220	163.741460	267.907056	903.794286	168.086102	333.110402	796.615425	139.576439	278.911052	775.181482	194.036999	138.263189	524.747362	-137.496171	261.809029	836.906877	-142.119907	258.690427	723.198204	-84.075536	223.997023	716.406618	-162.760725	284.760990	127.753040	159.913735	357.350545	344.950186	142.687280	325.960891	236.436402	84.550376	319.462225	230.258836	165.841833	23.239791	98.723895	-102.364791	140.228143	308.897751	-93.662273	86.159720	206.526602	-39.921232	82.295267	202.096720	-120.066794	216.268535	69.330083	100.134543	441.474111	83.624732	80.273747	432.734784	79.150034	159.771013	-52.549258	60.646659	-55.624198	182.512754	57.844294	-27.096231	165.176240	49.923260	-113.302240	273.996411	1458.559847	-9.761521	138.964241	1572.192301	-11.741074	219.227700	1489.424795	187.267624	222.691462	1498.264077	-219.315525	
222	2.210000	-65.655739	1027.494446	-13.006688	244.637790	1030.654868	123.086197	244.073199	1023.709327	-132.521748	304.652944	554.091459	163.409943	266.117324	901.376909	168.655322	330.443378	793.701750	139.973821	276.510183	772.711745	194.601448	131.853997	524.323566	-137.332998	259.393300	835.285396	-141.641473	255.131842	721.495767	-83.715473	219.946028	715.253333	-162.273244	304.483416	125.323194	161.569830	365.108100	346.016605	143.471658	339.612891	235.733953	85.828919	333.187473	229.442945	167.189987	13.919167	98.873641	-102.229812	132.242102	308.468159	-93.603342	77.542054	206.396645	-39.846042	73.660725	202.009676	-119.959217	238.424903	64.008272	102.033359	462.834195	87.467800	81.501052	454.652270	82.636577	161.049818	-61.965710	60.785163	-55.534648	173.098284	57.669722	-27.100552	155.736641	49.778963	-113.305827	273.412180	1457.343341	-9.047059	138.669230	1571.166355	-10.945682	218.721097	1488.165045	188.068100	222.169417	1497.188883	-218.553026	
223	2.220000	-66.517282	1026.552943	-12.586783	243.738809	1029.310774	123.719779	243.237111	1022.539714	-131.880331	302.565655	552.238286	163.117887	264.340966	898.661722	169.144338	327.742068	790.460778	140.276809	274.089028	769.995144	195.126871	125.553128	523.872768	-137.164863	257.055112	833.574091	-141.126287	251.652453	719.705395	-83.306791	215.952849	714.038133	-161.739428	323.743181	123.996462	163.140431	372.321813	347.488647	144.236850	352.734221	235.794214	87.047124	346.362657	229.430331	168.480810	4.600064	99.044499	-102.121529	124.307056	308.025674	-93.545173	68.936802	206.267105	-39.786206	65.055036	201.933651	-119.880819	259.984801	60.074087	103.860530	483.358641	92.111956	82.473919	475.686330	86.863695	162.011857	-71.391676	60.940101	-55.467660	163.667705	57.496564	-27.105046	146.283068	49.626659	-113.305758	272.868397	1456.079948	-8.223924	138.394426	1570.075233	-10.045331	218.263548	1486.853710	188.958543	221.687224	1496.074306	-217.691339	
224	2.230000	-67.259566	1025.516115	-12.096908	242.963863	1027.897592	124.418152	242.510777	1021.298211	-131.173388	300.437221	550.385575	162.856198	262.626553	895.720079	169.573002	325.085905	786.997103	140.477574	271.735394	767.114646	195.608132	119.405694	523.380998	-136.981848	254.788212	831.771456	-140.585831	248.252383	717.839324	-82.838519	212.037479	712.759824	-161.158358	342.327393	123.738981	164.572834	378.959715	349.341332	144.907050	365.155272	236.580916	88.151192	358.917442	230.203015	169.653740	-4.710075	99.240383	-102.045569	116.455882	307.556388	-93.479902	60.358065	206.126724	-39.741701	56.505200	201.862765	-119.841628	280.710797	57.471282	105.598330	502.823724	97.451517	83.140853	495.634862	91.801840	162.622687	-80.823094	61.115896	-55.428142	154.229217	57.327127	-27.114154	136.816974	49.465545	-113.297142	272.373496	1454.776992	-7.291237	138.137376	1568.922240	-9.043275	217.844024	1485.497785	189.941126	221.261906	1494.928107	-216.730475	
225	2.240000	-67.885567	1024.387418	-11.522979	242.317153	1026.431034	125.178814	241.883519	1019.987493	-130.404210	298.305317	548.575886	162.625422	261.037804	892.644688	169.968208	322.531937	783.418337	140.574724	269.538307	764.164370	196.045025	113.458850	522.836398	-136.768482	252.586718	829.883569	-140.030616	244.934226	715.916958	-82.303407	208.228112	711.422223	-160.529248	359.987903	124.443765	165.816815	384.996703	351.519336	145.417015	376.708487	238.009899	89.092601	370.752198	231.684371	170.655278	-14.000388	99.469358	-102.003491	108.722886	307.048233	-93.394346	51.826668	205.967284	-39.707004	48.039381	201.792317	-119.839155	300.366890	56.045903	107.225872	520.990228	103.374369	83.459917	514.291234	97.402239	162.863892	-90.251667	61.323090	-55.418005	144.793456	57.162172	-27.129922	127.344003	49.297026	-113.277625	271.936432	1453.441893	-6.250640	137.899401	1567.713740	-7.943929	217.454280	1484.102772	191.016735	220.909098	1493.757335	-215.671387	
226	2.250000	-68.401769	1023.173939	-10.853401	241.796518	1024.927957	125.995121	241.340699	1018.615111	-129.580436	296.205291	546.838855	162.439486	259.647658	889.546046	170.359017	320.111680	779.829420	140.573531	267.576727	761.242036	196.438425	107.757404	522.231564	-136.505373	250.448852	827.924806	-139.465096	241.706343	713.962356	-81.699938	204.557803	710.033634	-159.849346	376.449488	125.924162	166.829695	390.411699	353.929707	145.726921	387.238640	239.946799	89.834805	381.734977	233.733636	171.445782	-23.257139	99.743727	-101.991821	101.140401	306.493583	-93.271160	43.368979	205.787336	-39.671650	39.683475	201.720594	-119.857400	318.717847	55.554311	108.708730	537.612955	109.755392	83.411836	531.441348	103.568232	162.738679	-99.665221	61.579629	-55.435300	135.371155	57.001106	-27.151307	117.873422	49.124702	-113.247807	271.565678	1452.082220	-5.105839	137.686486	1566.459880	-6.752690	217.089315	1482.672931	192.184588	220.641929	1492.568208	-214.516043	
227	2.260000	-68.818020	1021.886954	-10.079733	241.394079	1023.405952	126.857157	240.865935	1017.193583	-128.712899	294.181701	545.192082	162.323526	258.529383	886.544691	170.771642	317.843382	776.332264	140.486164	265.910925	758.440774	196.786564	102.339522	521.565259	-136.172804	248.380201	825.917463	-138.883747	238.584376	712.001052	-81.033142	201.059917	708.605962	-159.111876	391.423616	127.919867	167.579891	395.186598	356.439213	145.831534	396.611782	242.210241	90.357997	391.707425	236.148660	172.004015	-32.464821	100.079276	-102.002795	93.735731	305.891370	-93.092545	35.013401	205.594121	-39.622436	31.458071	201.650491	-119.870768	335.526092	55.687260	109.991781	552.452951	116.440732	83.010655	546.864582	110.127597	162.275455	-109.048886	61.911112	-55.474660	125.971064	56.842506	-27.174536	108.416326	48.953620	-113.210840	271.268111	1450.705682	-3.861949	137.508449	1565.174049	-5.475740	216.747274	1481.212161	193.442176	220.470266	1491.366240	-213.267405	
228	2.270000	-69.146660	1020.541804	-9.196738	241.098493	1021.882958	127.753570	240.443935	1015.739771	-127.813491	292.298383	543.643767	162.305904	257.746138	883.759887	171.225018	315.754277	773.028521	140.331746	264.579921	755.842444	197.083296	97.233508	520.842980	-135.755300	246.394894	823.889841	-138.270578	235.590544	710.057030	-80.313524	197.763535	707.153497	-158.305140	404.625880	130.117753	168.047985	399.307229	358.878594	145.760151	404.721482	244.581485	90.659875	400.498670	238.678205	172.327804	-41.607759	100.493942	-102.026567	86.528989	305.248008	-92.845163	26.785640	205.403198	-39.546499	23.376527	201.590346	-119.851106	350.548299	56.107024	110.999707	565.291661	123.228241	82.307012	560.340738	116.816732	161.526725	-118.387071	62.349871	-55.528928	116.598526	56.684791	-27.194310	98.982968	48.789035	-113.171335	271.048072	1449.320057	-2.524665	137.376500	1563.871316	-4.119716	216.428834	1479.725204	194.785545	220.400275	1490.156635	-211.929232	
